<svg width="26" height="26" viewBox="0 0 26 26" fill="none" xmlns="http://www.w3.org/2000/svg">
<g clip-path="url(#clip0_744_2387)">
<path d="M24.4335 0.999917C23.9444 0.592028 23.371 0.297602 22.7546 0.137819C22.1381 -0.0219651 21.4939 -0.0431342 20.8683 0.075834L10.9189 1.94133C9.67713 2.17405 8.55575 2.83353 7.7488 3.80566C6.94186 4.7778 6.50011 6.00142 6.5 7.26483V17.9357C5.84421 17.5457 5.09628 17.3378 4.33334 17.3333C3.47628 17.3333 2.63848 17.5875 1.92586 18.0636C1.21325 18.5398 0.657837 19.2166 0.329857 20.0084C0.00187755 20.8002 -0.0839369 21.6715 0.0832657 22.5121C0.250468 23.3526 0.663178 24.1248 1.26921 24.7308C1.87523 25.3368 2.64736 25.7495 3.48794 25.9167C4.32853 26.0839 5.19982 25.9981 5.99163 25.6701C6.78344 25.3422 7.46022 24.7867 7.93637 24.0741C8.41252 23.3615 8.66667 22.5237 8.66667 21.6667V11.7823C8.66663 11.2768 8.84335 10.7872 9.16622 10.3983C9.48909 10.0093 9.9378 9.74551 10.4347 9.6525L22.5496 7.3775C22.7067 7.34791 22.8685 7.35348 23.0232 7.39381C23.178 7.43414 23.3219 7.50822 23.4446 7.61075C23.5673 7.71328 23.6658 7.8417 23.733 7.9868C23.8002 8.13191 23.8345 8.29009 23.8333 8.45V14.69C23.178 14.2986 22.43 14.0891 21.6667 14.0833C20.8096 14.0833 19.9718 14.3375 19.2592 14.8136C18.5466 15.2898 17.9912 15.9666 17.6632 16.7584C17.3352 17.5502 17.2494 18.4215 17.4166 19.2621C17.5838 20.1026 17.9965 20.8748 18.6025 21.4808C19.2086 22.0868 19.9807 22.4995 20.8213 22.6667C21.6619 22.8339 22.5331 22.7481 23.325 22.4201C24.1168 22.0922 24.7936 21.5367 25.2697 20.8241C25.7459 20.1115 26 19.2737 26 18.4167V4.33333C26.0007 3.69659 25.8607 3.06756 25.5899 2.49128C25.3191 1.915 24.9242 1.40573 24.4335 0.999917ZM4.33334 23.8333C3.90481 23.8333 3.48591 23.7063 3.1296 23.4682C2.77329 23.2301 2.49559 22.8917 2.3316 22.4958C2.16761 22.0999 2.1247 21.6643 2.2083 21.244C2.2919 20.8237 2.49826 20.4376 2.80127 20.1346C3.10428 19.8316 3.49035 19.6252 3.91064 19.5416C4.33093 19.458 4.76658 19.5009 5.16248 19.6649C5.55839 19.8289 5.89678 20.1066 6.13485 20.4629C6.37293 20.8192 6.5 21.2381 6.5 21.6667C6.5 22.2413 6.27173 22.7924 5.8654 23.1987C5.45907 23.6051 4.90797 23.8333 4.33334 23.8333ZM22.1509 5.252L10.0349 7.52267C9.55319 7.61446 9.09053 7.78736 8.66667 8.034V7.26483C8.66657 6.50674 8.93148 5.77246 9.41558 5.18905C9.89967 4.60565 10.5725 4.20983 11.3176 4.07008L21.268 2.20458C21.5808 2.14603 21.9027 2.1571 22.2107 2.237C22.5187 2.3169 22.8054 2.46368 23.0503 2.6669C23.2952 2.87011 23.4923 3.12478 23.6276 3.4128C23.763 3.70081 23.8332 4.0151 23.8333 4.33333V5.39933C23.2958 5.20051 22.7148 5.14963 22.1509 5.252ZM21.6667 20.5833C21.2381 20.5833 20.8192 20.4563 20.4629 20.2182C20.1066 19.9801 19.8289 19.6417 19.6649 19.2458C19.5009 18.8499 19.458 18.4143 19.5416 17.994C19.6252 17.5737 19.8316 17.1876 20.1346 16.8846C20.4376 16.5816 20.8237 16.3752 21.244 16.2916C21.6643 16.208 22.0999 16.2509 22.4958 16.4149C22.8917 16.5789 23.2301 16.8566 23.4682 17.2129C23.7063 17.5692 23.8333 17.9881 23.8333 18.4167C23.8333 18.9913 23.6051 19.5424 23.1987 19.9487C22.7924 20.3551 22.2413 20.5833 21.6667 20.5833Z" fill="black"/>
</g>
<defs>
<clipPath id="clip0_744_2387">
<rect width="26" height="26" fill="white"/>
</clipPath>
</defs>
</svg>
