<svg width="30" height="30" viewBox="0 0 30 30" fill="none" xmlns="http://www.w3.org/2000/svg">
<path d="M16.542 0C18.2295 0.0045 19.086 0.0135 19.8255 0.0345L20.1165 0.045C20.4525 0.057 20.784 0.0719999 21.1845 0.0899999C22.7805 0.165 23.8695 0.417 24.825 0.7875C25.815 1.1685 26.649 1.6845 27.483 2.517C28.246 3.2666 28.8363 4.17371 29.2125 5.175C29.583 6.1305 29.835 7.2195 29.91 8.817C29.928 9.216 29.943 9.5475 29.955 9.885L29.964 10.176C29.9865 10.914 29.9955 11.7705 29.9985 13.458L30 14.577V16.542C30.0037 17.6361 29.9921 18.7302 29.9655 19.824L29.9565 20.115C29.9445 20.4525 29.9295 20.784 29.9115 21.183C29.8365 22.7805 29.5815 23.868 29.2125 24.825C28.8363 25.8263 28.246 26.7334 27.483 27.483C26.7334 28.246 25.8263 28.8363 24.825 29.2125C23.8695 29.583 22.7805 29.835 21.1845 29.91L20.1165 29.955L19.8255 29.964C19.086 29.985 18.2295 29.9955 16.542 29.9985L15.423 30H13.4595C12.3649 30.0039 11.2703 29.9924 10.176 29.9655L9.885 29.9565C9.52891 29.943 9.17291 29.9275 8.817 29.91C7.221 29.835 6.132 29.583 5.175 29.2125C4.17424 28.8361 3.26766 28.2459 2.5185 27.483C1.75492 26.7336 1.16416 25.8264 0.787499 24.825C0.416999 23.8695 0.164999 22.7805 0.0899986 21.183L0.0449987 20.115L0.0374988 19.824C0.00984791 18.7302 -0.00265343 17.6361 -1.29669e-06 16.542V13.458C-0.00415314 12.3639 0.00684803 11.2698 0.0329988 10.176L0.0434988 9.885C0.0554988 9.5475 0.0704987 9.216 0.0884987 8.817C0.163499 7.2195 0.415499 6.132 0.785999 5.175C1.16354 4.1733 1.75533 3.26615 2.52 2.517C3.26873 1.75432 4.17478 1.16411 5.175 0.7875C6.132 0.417 7.2195 0.165 8.817 0.0899999C9.216 0.0719999 9.549 0.057 9.885 0.045L10.176 0.0359999C11.2698 0.00934906 12.3639 -0.00215205 13.458 0.00149989L16.542 0ZM15 7.5C13.0109 7.5 11.1032 8.29018 9.6967 9.6967C8.29018 11.1032 7.5 13.0109 7.5 15C7.5 16.9891 8.29018 18.8968 9.6967 20.3033C11.1032 21.7098 13.0109 22.5 15 22.5C16.9891 22.5 18.8968 21.7098 20.3033 20.3033C21.7098 18.8968 22.5 16.9891 22.5 15C22.5 13.0109 21.7098 11.1032 20.3033 9.6967C18.8968 8.29018 16.9891 7.5 15 7.5ZM15 10.5C15.5909 10.4999 16.1761 10.6162 16.7221 10.8423C17.2681 11.0683 17.7643 11.3997 18.1822 11.8175C18.6001 12.2353 18.9317 12.7313 19.1579 13.2772C19.3842 13.8232 19.5006 14.4083 19.5007 14.9993C19.5008 15.5902 19.3845 16.1754 19.1585 16.7214C18.9324 17.2674 18.6011 17.7635 18.1833 18.1814C17.7655 18.5994 17.2694 18.9309 16.7235 19.1572C16.1776 19.3834 15.5924 19.4999 15.0015 19.5C13.808 19.5 12.6634 19.0259 11.8195 18.182C10.9756 17.3381 10.5015 16.1935 10.5015 15C10.5015 13.8065 10.9756 12.6619 11.8195 11.818C12.6634 10.9741 13.808 10.5 15.0015 10.5M22.8765 5.25C22.3792 5.25 21.9023 5.44754 21.5507 5.79917C21.199 6.15081 21.0015 6.62772 21.0015 7.125C21.0015 7.62228 21.199 8.09919 21.5507 8.45082C21.9023 8.80246 22.3792 9 22.8765 9C23.3738 9 23.8507 8.80246 24.2023 8.45082C24.554 8.09919 24.7515 7.62228 24.7515 7.125C24.7515 6.62772 24.554 6.15081 24.2023 5.79917C23.8507 5.44754 23.3738 5.25 22.8765 5.25Z" fill="black"/>
</svg>
