<svg width="26" height="25" viewBox="0 0 26 25" fill="none" xmlns="http://www.w3.org/2000/svg">
<g clip-path="url(#clip0_649_2395)">
<path d="M19.6406 0H6.35938C3.12333 0 0.5 2.62333 0.5 5.85938V19.1406C0.5 22.3767 3.12333 25 6.35938 25H19.6406C22.8767 25 25.5 22.3767 25.5 19.1406V5.85938C25.5 2.62333 22.8767 0 19.6406 0Z" fill="url(#paint0_radial_649_2395)"/>
<path d="M19.6406 0H6.35938C3.12333 0 0.5 2.62333 0.5 5.85938V19.1406C0.5 22.3767 3.12333 25 6.35938 25H19.6406C22.8767 25 25.5 22.3767 25.5 19.1406V5.85938C25.5 2.62333 22.8767 0 19.6406 0Z" fill="url(#paint1_radial_649_2395)"/>
<path d="M13.0009 2.73438C10.3487 2.73438 10.0158 2.746 8.97422 2.79336C7.93457 2.84102 7.2249 3.00557 6.604 3.24707C5.96162 3.49648 5.4168 3.83018 4.87402 4.37314C4.33076 4.91602 3.99707 5.46084 3.74688 6.10293C3.50469 6.72402 3.33994 7.43398 3.29316 8.47314C3.24658 9.51484 3.23438 9.84785 3.23438 12.5001C3.23438 15.1523 3.24609 15.4842 3.29336 16.5258C3.34121 17.5654 3.50576 18.2751 3.74707 18.896C3.99668 19.5384 4.33037 20.0832 4.87334 20.626C5.41602 21.1692 5.96084 21.5037 6.60273 21.7531C7.22412 21.9946 7.93389 22.1592 8.97334 22.2068C10.015 22.2542 10.3477 22.2658 12.9997 22.2658C15.6521 22.2658 15.984 22.2542 17.0256 22.2068C18.0652 22.1592 18.7757 21.9946 19.3971 21.7531C20.0392 21.5037 20.5832 21.1692 21.1258 20.626C21.669 20.0832 22.0026 19.5384 22.2529 18.8963C22.493 18.2751 22.6578 17.5652 22.7066 16.526C22.7534 15.4844 22.7656 15.1523 22.7656 12.5001C22.7656 9.84785 22.7534 9.51504 22.7066 8.47334C22.6578 7.43369 22.493 6.72412 22.2529 6.10322C22.0026 5.46084 21.669 4.91602 21.1258 4.37314C20.5826 3.82998 20.0394 3.49629 19.3965 3.24717C18.7739 3.00557 18.0639 2.84092 17.0242 2.79336C15.9825 2.746 15.6509 2.73438 12.9979 2.73438H13.0009ZM12.1248 4.49424C12.3849 4.49385 12.675 4.49424 13.0009 4.49424C15.6084 4.49424 15.9174 4.50361 16.9471 4.55039C17.8992 4.59395 18.416 4.75303 18.7603 4.88672C19.216 5.06367 19.5409 5.27529 19.8825 5.61719C20.2243 5.95898 20.4358 6.28447 20.6133 6.74023C20.747 7.08398 20.9062 7.60078 20.9496 8.55293C20.9964 9.58242 21.0065 9.8916 21.0065 12.4979C21.0065 15.1041 20.9964 15.4134 20.9496 16.4428C20.9061 17.3949 20.747 17.9117 20.6133 18.2556C20.4363 18.7113 20.2243 19.0358 19.8825 19.3774C19.5407 19.7192 19.2162 19.9308 18.7603 20.1078C18.4164 20.2421 17.8992 20.4008 16.9471 20.4443C15.9176 20.4911 15.6084 20.5013 13.0009 20.5013C10.3933 20.5013 10.0842 20.4911 9.05478 20.4443C8.10264 20.4004 7.58584 20.2413 7.24131 20.1076C6.78564 19.9306 6.46006 19.719 6.11826 19.3772C5.77646 19.0354 5.56494 18.7107 5.3875 18.2548C5.25381 17.9109 5.09453 17.3941 5.05117 16.442C5.00439 15.4125 4.99502 15.1033 4.99502 12.4954C4.99502 9.8875 5.00439 9.57998 5.05117 8.55049C5.09473 7.59834 5.25381 7.08154 5.3875 6.7373C5.56455 6.28154 5.77646 5.95605 6.11836 5.61426C6.46025 5.27246 6.78564 5.06084 7.24141 4.8835C7.58564 4.74922 8.10264 4.59053 9.05478 4.54678C9.95566 4.50605 10.3048 4.49385 12.1248 4.4918V4.49424ZM18.2138 6.11572C17.5668 6.11572 17.0419 6.64014 17.0419 7.28721C17.0419 7.93418 17.5668 8.45908 18.2138 8.45908C18.8607 8.45908 19.3856 7.93418 19.3856 7.28721C19.3856 6.64023 18.8607 6.11533 18.2138 6.11533V6.11572ZM13.0009 7.48496C10.2313 7.48496 7.98584 9.73047 7.98584 12.5001C7.98584 15.2697 10.2313 17.5142 13.0009 17.5142C15.7705 17.5142 18.0152 15.2697 18.0152 12.5001C18.0152 9.73057 15.7703 7.48496 13.0007 7.48496H13.0009ZM13.0009 9.24482C14.7986 9.24482 16.2562 10.7021 16.2562 12.5001C16.2562 14.2979 14.7986 15.7554 13.0009 15.7554C11.2031 15.7554 9.7457 14.2979 9.7457 12.5001C9.7457 10.7021 11.203 9.24482 13.0009 9.24482Z" fill="white"/>
</g>
<defs>
<radialGradient id="paint0_radial_649_2395" cx="0" cy="0" r="1" gradientUnits="userSpaceOnUse" gradientTransform="translate(7.14062 26.9255) rotate(-90) scale(24.7769 23.0444)">
<stop stop-color="#FFDD55"/>
<stop offset="0.1" stop-color="#FFDD55"/>
<stop offset="0.5" stop-color="#FF543E"/>
<stop offset="1" stop-color="#C837AB"/>
</radialGradient>
<radialGradient id="paint1_radial_649_2395" cx="0" cy="0" r="1" gradientUnits="userSpaceOnUse" gradientTransform="translate(-3.6876 1.80088) rotate(78.681) scale(11.0754 45.6531)">
<stop stop-color="#3771C8"/>
<stop offset="0.128" stop-color="#3771C8"/>
<stop offset="1" stop-color="#6600FF" stop-opacity="0"/>
</radialGradient>
<clipPath id="clip0_649_2395">
<rect width="25" height="25" fill="white" transform="translate(0.5)"/>
</clipPath>
</defs>
</svg>
