<svg width="110" height="105" viewBox="0 0 110 105" fill="none" xmlns="http://www.w3.org/2000/svg">
<path d="M32.8856 27.218C39.2681 23.484 46.1485 19.3132 52.5325 15.5818C52.6942 15.4875 52.8516 15.3024 53.0697 15.4203C53.2893 15.5388 53.2029 15.7623 53.198 15.9438C53.0503 21.9608 53.0004 27.9793 52.9364 33.9973C52.9305 34.571 52.7538 34.9222 52.2038 35.2222C48.3436 37.3299 44.5065 39.4765 40.6565 41.6016C40.4347 41.7242 40.3772 41.8518 40.388 42.0851C40.6071 46.8829 40.8139 51.6812 41.0303 56.479C41.1249 58.578 41.2366 60.6765 41.3322 62.7749C41.3424 63.0026 41.3805 63.121 41.6609 63.1846C44.1407 63.7501 46.6152 64.3366 49.0891 64.9236C49.3443 64.9841 49.4366 64.9529 49.4227 64.6693C49.3158 62.4345 49.2261 60.1986 49.1283 57.9633C49.0564 56.3139 48.9806 54.6646 48.9071 53.0153C48.9022 52.9102 48.9065 52.805 48.9065 52.6102C46.8043 53.9981 44.7896 55.3332 42.7652 56.6559C42.5708 56.7831 42.3968 57.0722 42.1158 56.9363C41.8306 56.7984 41.9692 56.4918 41.9628 56.2622C41.8672 52.8245 41.7887 49.3869 41.6856 45.9493C41.6727 45.5238 41.7511 45.2853 42.1878 45.0372C44.2106 43.8908 46.1909 42.6773 48.1863 41.4878C49.6859 40.5942 51.1855 39.7 52.6862 38.8085C52.8118 38.7336 52.9273 38.5803 53.1019 38.6813C53.2705 38.7787 53.1964 38.9546 53.1986 39.0956C53.2662 44.0354 53.3264 48.9757 53.3946 53.9155C53.4913 60.9159 53.5944 67.9167 53.6938 74.9171C53.7018 75.4959 53.5289 75.6026 52.9907 75.3467C47.625 72.7961 42.27 70.2249 36.8817 67.7183C36.2259 67.4133 36.0707 67.0826 36.0293 66.4561C35.8424 63.6393 35.5948 60.8262 35.374 58.012C35.1882 55.6459 35.0136 53.2788 34.8262 50.9127C34.613 48.2205 34.3874 45.5294 34.1736 42.8372C34.0157 40.8521 33.8739 38.8654 33.7149 36.8802C33.5205 34.447 33.3158 32.0142 33.116 29.5815" fill="#A21D2B"/>
<path d="M61.7203 79.1509C62.8402 78.3737 63.9343 77.6144 65.0289 76.8556C71.0333 72.691 77.0387 68.5268 83.042 64.3602C83.723 63.8875 84.3901 63.3968 85.0658 62.9174C85.4181 62.6672 85.5438 62.7165 85.597 63.1389C85.6222 63.3409 85.6238 63.5496 85.6024 63.7516C85.4863 64.8272 85.5309 65.9059 85.5438 66.9831C85.5476 67.2892 85.4396 67.485 85.2054 67.6794C81.089 71.1011 76.9791 74.53 72.867 77.9563C67.8187 82.163 62.7693 86.3686 57.7199 90.5748C57.5115 90.7486 57.2988 90.9173 57.0883 91.0885C57.0303 91.1357 56.9653 91.1628 56.8939 91.1285C56.7692 91.0685 56.7714 90.9567 56.7784 90.845C56.8203 90.2051 56.8568 89.5653 56.9046 88.926C57.0996 86.3143 57.2951 83.7031 57.496 81.092C57.7414 77.8964 57.9971 74.7017 58.2388 71.5056C58.4547 68.6494 58.6524 65.7921 58.8677 62.9359C59.1094 59.7264 59.3662 56.518 59.6089 53.3085C59.7964 50.8332 59.9693 48.3569 60.1557 45.8816C60.3647 43.1074 60.5768 40.3332 60.8024 37.56C60.8223 37.317 60.7439 37.2294 60.5247 37.1468C58.6459 36.4383 56.7854 35.6831 54.8872 35.0273C54.392 34.8566 54.3318 34.6613 54.3356 34.2403C54.3872 28.6181 54.4146 22.9954 54.471 17.3732C54.4769 16.7754 54.5171 16.176 54.4726 15.5798C54.4532 15.3239 54.6058 15.2158 54.7744 15.143C54.9189 15.0804 55.0671 15.1496 55.1869 15.2229C61.2364 18.9272 67.2832 22.636 73.3353 26.3361C73.6839 26.5494 73.7338 26.875 73.6565 27.1595C73.0195 29.5184 72.6586 31.9307 72.0871 34.3029C70.9403 39.0592 69.864 43.8308 68.7602 48.5968C67.5764 53.7084 66.3964 58.821 65.2126 63.9326C64.0503 68.9508 62.8848 73.9686 61.7219 78.9869C61.7133 79.0243 61.7209 79.0653 61.7209 79.1504L61.7203 79.1509Z" fill="#010101"/>
<path d="M31.5595 30.5484C31.7748 33.9378 31.9773 37.3278 32.1949 40.7167C32.4161 44.16 32.6498 47.6027 32.8786 51.046C33.1364 54.925 33.3942 58.8036 33.6526 62.6826C33.7637 64.3566 33.8787 66.03 33.985 67.7045C33.9974 67.8983 34.0533 68.0157 34.2509 68.1157C38.3678 70.1977 42.3564 72.5012 46.4739 74.5838C48.7405 75.7302 51.0689 76.7453 53.4193 77.7189C53.7088 77.8389 53.8624 77.9907 53.9053 78.3106C54.2894 81.1468 54.6927 83.9805 55.0918 86.8147C55.3045 88.3266 55.5183 89.838 55.7364 91.3489C55.7965 91.7647 55.7718 91.7668 55.3588 91.716C55.1434 91.6894 54.986 91.5991 54.819 91.5043C47.9982 87.6345 41.4116 83.4211 34.8783 79.1294C32.1046 77.3078 29.2821 75.5549 26.5665 73.6528C26.1712 73.3759 25.9687 73.0411 25.9225 72.6058C25.6265 69.8127 25.3472 67.018 25.0459 64.2253C24.8123 62.0571 24.5427 59.892 24.3112 57.7233C24.0866 55.6218 23.8788 53.5182 23.6833 51.4141C23.4539 48.9429 23.2396 46.4707 23.0312 43.998C22.897 42.4081 22.7723 40.8172 22.6671 39.2248C22.565 37.6749 22.4334 36.1301 22.102 34.6064C22.0558 34.3936 22.066 34.1675 22.0016 33.9614C21.8883 33.5964 22.0279 33.3893 22.3572 33.2001C24.9433 31.7086 27.5209 30.2039 30.1001 28.7017C30.4396 28.5038 30.8 28.3377 31.1002 28.0808C31.1921 28.0024 31.2968 27.9116 31.4402 28.0013C31.5654 28.0798 31.5799 28.1967 31.5707 28.3243C31.5578 28.5012 31.5476 28.6781 31.5331 28.9022" fill="#A21D2B"/>
<path d="M71.5774 70.4705C72.5007 67.8876 73.272 65.9947 74.1995 63.4133C74.669 62.1079 75.0724 60.8395 75.5643 59.4676C74.3542 59.8839 73.5067 60.1751 72.3632 60.5693C70.8244 61.1 69.2861 61.6322 67.7462 62.1592C67.6194 62.2028 67.483 62.314 67.3466 62.2018C67.1999 62.0813 67.2821 61.93 67.3149 61.7844C68.5314 56.3606 69.7448 50.9358 70.9613 45.512C71.999 40.8849 73.0045 36.2512 74.1045 31.6379C74.3768 30.4957 74.7383 29.3693 74.9461 28.2095C74.9993 27.9147 75.169 27.845 75.4322 28.0075C76.9173 28.9237 78.4046 29.8363 79.8822 30.7633C80.1432 30.9268 80.2463 31.157 80.1754 31.5C79.2366 36.0369 78.3181 40.5778 77.3932 45.1172C76.8599 47.734 76.3227 50.3503 75.7883 52.9671C75.7781 53.0178 75.7781 53.0707 75.769 53.1706C76.3915 52.9758 76.9565 52.7907 77.528 52.6246C77.7439 52.5621 77.8616 52.4621 77.8976 52.2396C78.3251 49.59 78.7591 46.9409 79.1936 44.2923C79.6614 41.4412 80.1314 38.5906 80.6019 35.74C80.784 34.6377 80.9687 33.5359 81.1551 32.4342C81.2427 31.9168 81.3979 31.8456 81.8437 32.1127C83.0629 32.8438 84.2779 33.5821 85.5046 34.3019C85.7479 34.4449 85.8156 34.6105 85.8054 34.8684C85.4472 43.6647 85.7012 52.0786 85.6169 60.877" fill="#010101"/>
</svg>
