<svg width="30" height="30" viewBox="0 0 30 30" fill="none" xmlns="http://www.w3.org/2000/svg">
<path d="M15 0C12.0333 0 9.13319 0.879735 6.66645 2.52796C4.19972 4.17618 2.27713 6.51886 1.14181 9.25975C0.00649926 12.0006 -0.290551 15.0166 0.288228 17.9264C0.867006 20.8361 2.29562 23.5088 4.3934 25.6066C6.49119 27.7044 9.16394 29.133 12.0737 29.7118C14.9834 30.2906 17.9994 29.9935 20.7403 28.8582C23.4812 27.7229 25.8238 25.8003 27.472 23.3336C29.1203 20.8668 30 17.9667 30 15C29.996 11.023 28.4144 7.20997 25.6022 4.39778C22.79 1.5856 18.977 0.00397108 15 0ZM23.9085 11.5695V12.5385C23.9085 12.6127 23.8937 12.6861 23.8649 12.7544C23.836 12.8227 23.7938 12.8846 23.7407 12.9363C23.6875 12.9881 23.6246 13.0286 23.5555 13.0556C23.4864 13.0826 23.4126 13.0955 23.3385 13.0935C21.7547 12.9816 20.2396 12.4033 18.984 11.4315V18.5235C18.9837 19.3084 18.827 20.0854 18.5231 20.8091C18.2192 21.5328 17.7742 22.1887 17.214 22.7385C16.6493 23.3027 15.9776 23.7485 15.2384 24.0499C14.4992 24.3513 13.7072 24.5021 12.909 24.4935C11.3038 24.4912 9.76313 23.8613 8.61601 22.7385C7.88609 22.0026 7.36035 21.0894 7.0905 20.0886C6.82065 19.0879 6.816 18.0341 7.07701 17.031C7.31551 16.068 7.79701 15.183 8.47651 14.4615C8.98325 13.8421 9.62202 13.3438 10.3461 13.0031C11.0702 12.6623 11.8613 12.4877 12.6615 12.492H13.8915V15.0465C13.892 15.1207 13.8768 15.1941 13.8467 15.262C13.8166 15.3298 13.7724 15.3904 13.7171 15.4398C13.6617 15.4892 13.5965 15.5262 13.5257 15.5484C13.4549 15.5706 13.3802 15.5775 13.3065 15.5685C12.5923 15.354 11.8228 15.4251 11.1601 15.767C10.4973 16.1088 9.99322 16.6946 9.75397 17.4008C9.51472 18.1071 9.55904 18.8787 9.87758 19.5529C10.1961 20.2271 10.764 20.7513 11.4615 21.015C11.8665 21.2475 12.3195 21.384 12.7845 21.4155C13.1445 21.4305 13.5045 21.3855 13.8465 21.2775C14.4174 21.0849 14.9141 20.7189 15.2671 20.2306C15.6201 19.7423 15.812 19.156 15.816 18.5535V5.631C15.816 5.48804 15.8727 5.35092 15.9736 5.24969C16.0746 5.14847 16.2115 5.0914 16.3545 5.091H18.477C18.6149 5.09117 18.7475 5.1441 18.8477 5.23893C18.9478 5.33376 19.0078 5.4633 19.0155 5.601C19.0929 6.26284 19.3031 6.90225 19.6335 7.4809C19.964 8.05955 20.4078 8.56552 20.9385 8.9685C21.6557 9.50683 22.5074 9.83694 23.4 9.9225C23.5337 9.93393 23.6587 9.99342 23.7519 10.0899C23.8452 10.1865 23.9002 10.3135 23.907 10.4475L23.9085 11.5695Z" fill="black"/>
</svg>
