<svg width="25" height="25" viewBox="0 0 25 25" fill="none" xmlns="http://www.w3.org/2000/svg">
<g id="logos:tiktok-icon" clip-path="url(#clip0_865_1422)">
<path id="Vector" d="M18.5277 9.00187C20.3514 10.1523 22.5856 10.8292 24.9985 10.8292V6.73178C24.5418 6.73194 24.0864 6.68987 23.6396 6.60627V9.83152C21.2269 9.83152 18.993 9.15471 17.1689 8.00437V16.3661C17.1689 20.5491 13.3262 23.9398 8.58645 23.9398C6.81792 23.9398 5.17407 23.468 3.80859 22.6588C5.3671 24.0651 7.54054 24.9374 9.945 24.9374C14.6852 24.9374 18.5279 21.5467 18.5279 17.3635V9.00187H18.5277ZM20.2042 4.86808C19.2721 3.96954 18.6601 2.80833 18.5277 1.52454V0.997559H17.24C17.5641 2.6292 18.6699 4.02316 20.2042 4.86808ZM6.80649 19.4489C6.28573 18.8465 6.00424 18.1094 6.00556 17.3515C6.00556 15.4384 7.76316 13.8872 9.93162 13.8872C10.3357 13.887 10.7373 13.9418 11.1225 14.0495V9.86049C10.6724 9.80609 10.2182 9.7829 9.76417 9.79144V13.052C9.3788 12.9442 8.97693 12.8894 8.57268 12.8897C6.40432 12.8897 4.64682 14.4408 4.64682 16.3541C4.64682 17.707 5.52528 18.8783 6.80649 19.4489Z" fill="#FF004F"/>
<path id="Vector_2" d="M17.1657 8.00428C18.9899 9.15463 21.2236 9.83144 23.6364 9.83144V6.60618C22.2896 6.35299 21.0973 5.73196 20.2009 4.86808C18.6665 4.02308 17.561 2.62911 17.2368 0.997559H13.8543V17.3633C13.8466 19.2713 12.092 20.8161 9.92825 20.8161C8.65328 20.8161 7.52048 20.2798 6.80313 19.4489C5.52211 18.8783 4.64355 17.707 4.64355 16.3542C4.64355 14.441 6.40105 12.8898 8.56941 12.8898C8.98487 12.8898 9.38528 12.9469 9.7609 13.052V9.79152C5.10431 9.87644 1.35938 13.234 1.35938 17.3634C1.35938 19.4248 2.29192 21.2935 3.80552 22.6589C5.171 23.468 6.81475 23.94 8.58337 23.94C13.3232 23.94 17.1658 20.549 17.1658 16.3661L17.1657 8.00428Z" fill="black"/>
<path id="Vector_3" d="M23.6398 6.60603V5.73414C22.4253 5.73569 21.2348 5.43555 20.2043 4.86802C21.1164 5.74924 22.3175 6.35692 23.6398 6.60621M17.2401 0.997414C17.2092 0.841515 17.1855 0.684576 17.169 0.526983V0H12.4985V16.3659C12.4911 18.2737 10.7366 19.8185 8.57269 19.8185C7.95925 19.8193 7.35419 19.6927 6.8064 19.449C7.52375 20.2797 8.65656 20.8159 9.93152 20.8159C12.0952 20.8159 13.85 19.2713 13.8576 17.3634V0.9975L17.2401 0.997414ZM9.76446 9.79138V8.86302C9.37419 8.81597 8.98074 8.79241 8.58684 8.7925C3.84648 8.7925 0.00390625 12.1834 0.00390625 16.3659C0.00390625 18.9883 1.51409 21.2993 3.80899 22.6587C2.29539 21.2934 1.36284 19.4246 1.36284 17.3633C1.36284 13.234 5.10768 9.87629 9.76446 9.79138Z" fill="#00F2EA"/>
<path id="Vector_4" d="M23.6398 6.60603V5.73414C22.4253 5.73569 21.2348 5.43555 20.2043 4.86802C21.1164 5.74924 22.3175 6.35692 23.6398 6.60621M17.2401 0.997414C17.2092 0.841515 17.1855 0.684576 17.169 0.526983V0H12.4985V16.3659C12.4911 18.2737 10.7366 19.8185 8.57269 19.8185C7.95925 19.8193 7.35419 19.6927 6.8064 19.449C7.52375 20.2797 8.65656 20.8159 9.93152 20.8159C12.0952 20.8159 13.85 19.2713 13.8576 17.3634V0.9975L17.2401 0.997414ZM9.76446 9.79138V8.86302C9.37419 8.81597 8.98074 8.79241 8.58684 8.7925C3.84648 8.7925 0.00390625 12.1834 0.00390625 16.3659C0.00390625 18.9883 1.51409 21.2993 3.80899 22.6587C2.29539 21.2934 1.36284 19.4246 1.36284 17.3633C1.36284 13.234 5.10768 9.87629 9.76446 9.79138Z" fill="#00F2EA"/>
</g>
<defs>
<clipPath id="clip0_865_1422">
<rect width="25" height="25" fill="white"/>
</clipPath>
</defs>
</svg>
